<svg id="visual" viewBox="0 0 900 600" width="900" height="600" xmlns="http://www.w3.org/2000/svg" xmlns:xlink="http://www.w3.org/1999/xlink" version="1.1"><rect x="0" y="0" width="900" height="600" fill="#F2F2F2"></rect><path d="M0 458L13.7 455C27.3 452 54.7 446 82 444.8C109.3 443.7 136.7 447.3 163.8 452.7C191 458 218 465 245.2 466.5C272.3 468 299.7 464 327 457.3C354.3 450.7 381.7 441.3 409 434.8C436.3 428.3 463.7 424.7 491 431.2C518.3 437.7 545.7 454.3 573 461.5C600.3 468.7 627.7 466.3 654.8 466.3C682 466.3 709 468.7 736.2 468.5C763.3 468.3 790.7 465.7 818 462.2C845.3 458.7 872.7 454.3 886.3 452.2L900 450L900 601L886.3 601C872.7 601 845.3 601 818 601C790.7 601 763.3 601 736.2 601C709 601 682 601 654.8 601C627.7 601 600.3 601 573 601C545.7 601 518.3 601 491 601C463.7 601 436.3 601 409 601C381.7 601 354.3 601 327 601C299.7 601 272.3 601 245.2 601C218 601 191 601 163.8 601C136.7 601 109.3 601 82 601C54.7 601 27.3 601 13.7 601L0 601Z" fill="#D97981" stroke-linecap="round" stroke-linejoin="miter"></path></svg>