<?xml version="1.0" encoding="UTF-8"?>
<!DOCTYPE svg PUBLIC "-//W3C//DTD SVG 1.1//EN" "http://www.w3.org/Graphics/SVG/1.1/DTD/svg11.dtd">
<svg xmlns="http://www.w3.org/2000/svg" xml:space="preserve" width="926px" height="673px" version="1.1" style="shape-rendering:geometricPrecision; text-rendering:geometricPrecision; image-rendering:optimizeQuality; fill-rule:evenodd; clip-rule:evenodd" viewBox="0 0 926 672.261" xmlns:xlink="http://www.w3.org/1999/xlink" xmlns:xodm="http://www.corel.com/coreldraw/odm/2003">
	<defs>
		<style type="text/css">
		<![CDATA[
			.fil1 {fill:none}
			.fil0 {fill:url(#id0); stroke:#fff; stroke-width:1}
		]]>
		</style>
		<linearGradient id="id0" gradientUnits="userSpaceOnUse" x1="-496.577" y1="336.128" x2="1422.576" y2="336.128">
			<stop offset="0" style="stop-opacity:.65; stop-color:#E6E6EF"/>
			<stop offset="1" style="stop-opacity:.65; stop-color:#FDEFEE"/>
		</linearGradient>
	</defs>
	<g>
		<g>
			<path class="fil0" d="M849.413 228.318c0,24.151 -3.958,47.978 -11.639,70.886 -36.08,163.248 -348.065,360.735 -361.34,369.136 -4.145,2.575 -8.8,3.921 -13.544,3.921 -4.733,0 -9.453,-1.192 -13.598,-3.921 -3.569,-2.322 -91.47,-57.793 -180.59,-134.035 -10.672,-9.197 -11.792,-25.067 -2.838,-35.691 9.173,-10.535 25.019,-11.82 35.708,-2.865 66.43,56.752 133.567,102.637 161.441,121.123 93.7,-61.089 300.555,-216.513 325.912,-331.143 6.622,-20.249 9.613,-38.666 9.613,-57.36 0,-65.075 -35.428,-125.064 -92.48,-156.49 -72.854,-40.424 -170.378,-21.784 -223.681,42.467 -9.58,11.601 -29.278,11.601 -39.035,0 -53.463,-64.299 -150.915,-82.795 -223.67,-42.542 -57.234,31.497 -92.662,91.449 -92.662,156.462 0,18.568 3.146,37.064 8.999,54.928 3.76,16.717 10.952,33.062 20.105,50.021l147.794 0.007 50.755 -116.642c4.347,-9.986 14.729,-16.266 25.408,-15.143 10.881,0.95 19.951,8.774 22.373,19.402l37.364 157.96 48.334 -79.253c4.555,-7.527 12.748,-12.127 21.603,-12.127l91.719 0.003c13.961,0 25.309,11.304 25.309,25.327 0,13.95 -11.348,25.319 -25.309,25.319l-77.509 0 -72.809 119.596c-4.645,7.626 -12.831,12.181 -21.532,12.181 -1.383,0 -2.719,-0.109 -3.958,-0.296 -10.201,-1.636 -18.233,-9.153 -20.682,-19.139l-34.147 -143.887 -26.98 62.103c-4.029,9.333 -13.165,15.224 -23.239,15.224l-295.289 0c-13.862,-0.01 -25.319,-11.341 -25.319,-25.319 0,-13.951 11.457,-25.319 25.319,-25.319l74.244 0.003c-5.269,-12.567 -9.525,-24.766 -12.161,-36.568 -7.066,-20.495 -10.887,-44.356 -10.887,-68.384 0,-83.509 45.413,-160.393 118.793,-200.821 84.992,-47.012 197.457,-32.231 267.692,33.765 70.046,-66.006 182.43,-80.78 267.565,-33.765 73.291,40.374 118.848,117.315 118.848,200.876z"/>
			<line class="fil1" x1="925.999" y1="355.632" x2="925.999" y2= "361.43" />
		</g>
	</g>
</svg>
