<?xml version="1.0" encoding="UTF-8"?>
<!DOCTYPE svg PUBLIC "-//W3C//DTD SVG 1.1//EN" "http://www.w3.org/Graphics/SVG/1.1/DTD/svg11.dtd">
<svg xmlns="http://www.w3.org/2000/svg" xmlns:xlink="http://www.w3.org/1999/xlink" xml:space="preserve" width="1090px" height="791px" version="1.1" style="shape-rendering:geometricPrecision; text-rendering:geometricPrecision; image-rendering:optimizeQuality; fill-rule:evenodd; clip-rule:evenodd" viewBox="0 0 1090000 791336">
	<defs>
		<style type="text/css">
			<![CDATA[
				.canvas { fill:none; }
				.shape { fill:#ffffff; fill-opacity:.4; }
			]]>
		</style>
	</defs>
	<g>
		<path class="shape" d="M999830 268777c0,28429 -4659,56475 -13699,83440 -42470,192156 -409702,424616 -425327,434505 -4880,3030 -10359,4615 -15943,4615 -5572,0 -11127,-1404 -16007,-4615 -4201,-2734 -107667,-68028 -212569,-157771 -12562,-10825 -13881,-29506 -3341,-42011 10798,-12402 29450,-13913 42032,-3373 78194,66802 157220,120812 190030,142572 110292,-71907 353777,-254854 383625,-389784 7794,-23834 11316,-45513 11316,-67517 0,-76598 -41702,-147211 -108857,-184201 -85756,-47583 -200550,-25643 -263292,49987 -11275,13655 -34462,13655 -45947,0 -62930,-75686 -177640,-97458 -263279,-50076 -67369,37075 -109070,107643 -109070,184169 0,21856 3702,43628 10592,64655 4426,19677 12892,38916 23665,58879l173966 8 59743 -137298c5117,-11754 17338,-19146 29908,-17824 12807,1118 23484,10327 26334,22837l43981 185934 56893 -93289c5362,-8859 15006,-14274 25429,-14274l107961 4c16433,0 29791,13305 29791,29811 0,16421 -13358,29803 -29791,29803l-91234 0 -85703 140775c-5467,8976 -15103,14339 -25345,14339 -1628,0 -3200,-129 -4659,-350 -12008,-1926 -21462,-10774 -24345,-22527l-40194 -169368 -31757 73100c-4743,10987 -15496,17921 -27355,17921l-347579 0c-16317,-12 -29803,-13350 -29803,-29803 0,-16421 13486,-29803 29803,-29803l87391 4c-6202,-14793 -11211,-29152 -14315,-43045 -8317,-24123 -12815,-52209 -12815,-80493 0,-98297 53456,-188796 139831,-236382 100041,-55338 232423,-37940 315094,39744 82452,-77696 214736,-95085 314947,-39744 86270,47522 139894,138089 139894,236446z"/>
		<polygon class="canvas" points="1090000,0 545000,0 0,0 0,791336 545000,791336 1090000,791336 "/>
	</g>
</svg>
