<?xml version="1.0" encoding="UTF-8"?>
<!DOCTYPE svg PUBLIC "-//W3C//DTD SVG 1.1//EN" "http://www.w3.org/Graphics/SVG/1.1/DTD/svg11.dtd">
<svg xmlns="http://www.w3.org/2000/svg" xml:space="preserve" width="340px" height="100px" version="1.1" style="shape-rendering:geometricPrecision; text-rendering:geometricPrecision; image-rendering:optimizeQuality; fill-rule:evenodd; clip-rule:evenodd" viewBox="0 0 101.543 29.866"  xmlns:xlink="http://www.w3.org/1999/xlink"  xmlns:xodm="http://www.corel.com/coreldraw/odm/2003">
	<defs>
		<style type="text/css">
			<![CDATA[
			.fil2 {fill:#6AB3C4}
			.fil0 {fill:#9AA6AF}
			.fil1 {fill:#D47776}
			.fil3 {fill:#778086;fill-rule:nonzero}
			.fil4 {fill:#D47776;fill-rule:nonzero}
			]]>
		</style>
	</defs>
	<g class="shape">
		<g>
			<path class="fil0" d="M7.373 20.638l0 -11.644 -0.368 0.369 -4.986 0 14.816 -9.363 5.49 3.469 0 -2.257 2.281 0 0 3.698 7.046 4.453 -4.986 0 -0.368 -0.369 0 11.644c0,0 -0.34,0.262 -0.617,0.482 -0.276,0.22 -1.04,0.184 -1.04,0.184l0 -13.457 -7.806 -4.872 -7.805 4.872 0 13.457c0,0 -0.764,0.036 -1.04,-0.184 -0.277,-0.22 -0.617,-0.482 -0.617,-0.482z"/>
			<path class="fil1" d="M17.331 15.454c0,0 0.879,-0.665 0.879,-1.671 0,-1.006 -0.326,-1.006 -0.326,-1.473 0,-0.467 0.184,-0.467 0.184,-0.467l0 -0.44c-0.092,0.167 -0.878,-0.156 -0.878,-1.048 0,-0.892 0.779,-1.161 1.119,-1.161 0.34,0 0.722,0.34 0.722,0.694 0,0.354 0.076,0.726 0.076,0.726 0,0 0.647,-0.202 1.412,-0.202 0.765,0 3.343,0.312 3.343,2.564 0,0 -0.057,1.558 -1.105,1.558 0,0 0.397,-0.368 0.397,-1.275 0,-0.907 -1.049,-1.36 -1.233,-1.204 0,0 1.927,6.361 -0.311,9.534 0,0 0.383,-3.428 -0.382,-4.944 0,0 -1.318,4.901 -2.224,5.043 0,0 1.841,-7.479 0,-8.726 0,0 -0.142,2.677 -1.673,2.492zm0.127 0.285c0,0 -1.077,0.333 -1.927,-2.826 0,0 -1.77,-0.509 -0.509,6.247l-0.567 0.042 -0.29 2.21 -0.305 -2.16 -1.204 -0.007 -0.503 2.358 -0.333 -2.351 -0.828 -0.078c0,0 0.389,-3.463 0.729,-5.191 0,0 -0.609,0.382 -1.232,2.195 0,0 -0.284,-4.801 4.277,-4.943 0,0 -0.042,-0.255 -0.007,-0.468 0,0 -0.488,-0.056 -0.488,-0.524 0,-0.467 0.623,-0.616 0.857,-0.226 0,0 0.835,-0.156 1.09,0.311 0.255,0.468 0.022,1.325 -0.368,1.608 0,0 0.128,0.39 0.34,0.616 0,0 -0.082,1.974 1.268,3.187z"/>
			<path class="fil0" d="M17.026 16.484c0,0 0.142,-0.503 0.56,-0.503 0.418,0 0.418,0.474 0.418,0.559 0,0.085 0.107,5.206 0.107,5.206 0,0 0.195,-4.515 0.181,-5.05 -0.014,-0.534 -0.206,-0.874 -0.67,-0.874 -0.463,0 -0.596,0.662 -0.596,0.662z"/>
			<path class="fil2" d="M31.36 16.919l-0.069 0.15 0.043 0.002c0.231,0.008 0.471,0.072 0.65,0.205 0.153,0.115 0.26,0.28 0.28,0.503 0.015,0.165 -0.355,0.755 -0.83,1.431 -0.703,0.998 -1.64,2.197 -1.889,2.455 -0.044,0.045 -0.105,0.088 -0.176,0.127 -0.08,0.046 -0.174,0.087 -0.265,0.122l-0.197 0.075 0.131 -0.165c0.368,-0.466 1.081,-1.371 1.711,-2.208 0.624,-0.829 1.163,-1.586 1.189,-1.758 0.008,-0.057 0.006,-0.108 -0.006,-0.152 -0.025,-0.094 -0.093,-0.166 -0.184,-0.218 -0.097,-0.056 -0.22,-0.092 -0.348,-0.111 -0.216,-0.032 -0.444,-0.018 -0.591,0.022 -0.256,0.079 -0.56,0.185 -0.849,0.315 -0.288,0.129 -0.563,0.282 -0.761,0.458 -0.264,0.233 -0.687,0.724 -1.152,1.263 -0.835,0.97 -1.807,2.098 -2.292,2.229 -0.203,0.055 -0.462,0.076 -0.69,0.095l-0.157 0.013c-0.217,0.02 -0.435,0.043 -0.659,0.071 -0.219,0.027 -0.438,0.059 -0.654,0.098 -0.585,0.107 -1.15,0.264 -1.687,0.485 -0.536,0.221 -1.045,0.507 -1.518,0.872 -1.012,0.781 -1.882,1.882 -2.383,3.107 -0.447,1.093 -0.6,2.286 -0.297,3.439l0.005 0.022 5.913 0 0.002 -0.026c0.026,-0.271 0.138,-0.539 0.301,-0.773 0.172,-0.248 0.402,-0.458 0.648,-0.593 0.944,-0.518 1.89,-1.089 2.817,-1.648l0.117 -0.071c0.313,-0.189 0.621,-0.376 0.914,-0.557 0.3,-0.185 0.602,-0.374 0.906,-0.569l0.151 -0.096c0.313,-0.198 0.69,-0.437 0.936,-0.661 0.268,-0.243 0.983,-1.604 1.665,-3.041 0.738,-1.554 1.436,-3.194 1.489,-3.605 0.039,-0.3 0.097,-1.356 0.097,-2.554 0,-0.963 -0.038,-2.017 -0.153,-2.839 -0.111,-0.798 -0.29,-1.373 -0.569,-1.409l-0.027 -0.002c-0.524,0 -0.841,0.54 -1.035,1.178 -0.199,0.654 -0.267,1.415 -0.297,1.823 -0.028,0.406 -0.063,0.82 -0.101,1.24 -0.038,0.417 -0.08,0.83 -0.124,1.238l-0.005 0.018zm-28.98 0.15l-0.073 -0.158 -0.001 -0.01c-0.044,-0.408 -0.086,-0.821 -0.124,-1.238 -0.038,-0.42 -0.073,-0.834 -0.102,-1.24 -0.029,-0.408 -0.097,-1.169 -0.296,-1.823 -0.194,-0.638 -0.511,-1.178 -1.035,-1.178l-0.028 0.002c-0.278,0.037 -0.457,0.611 -0.569,1.41 -0.115,0.821 -0.152,1.875 -0.152,2.839 0,1.197 0.058,2.253 0.097,2.553 0.053,0.411 0.752,2.051 1.49,3.606 0.682,1.437 1.396,2.797 1.664,3.04 0.245,0.223 0.623,0.462 0.935,0.66l0.152 0.097c0.304,0.195 0.606,0.384 0.906,0.569 0.293,0.181 0.601,0.368 0.914,0.557l0.125 0.076c0.924,0.558 1.867,1.126 2.809,1.643 0.245,0.135 0.476,0.345 0.648,0.593 0.163,0.234 0.275,0.502 0.3,0.773l0.003 0.026 5.913 0 0.005 -0.022c0.303,-1.153 0.15,-2.346 -0.297,-3.439 -0.501,-1.225 -1.371,-2.326 -2.383,-3.107 -0.474,-0.365 -0.982,-0.651 -1.518,-0.872 -0.537,-0.221 -1.102,-0.378 -1.687,-0.485 -0.216,-0.039 -0.435,-0.071 -0.654,-0.098 -0.224,-0.028 -0.443,-0.051 -0.66,-0.071l-0.157 -0.013c-0.227,-0.019 -0.486,-0.04 -0.688,-0.095 -0.486,-0.131 -1.458,-1.259 -2.293,-2.228 -0.465,-0.54 -0.888,-1.03 -1.152,-1.264 -0.199,-0.176 -0.473,-0.329 -0.761,-0.458 -0.29,-0.13 -0.593,-0.236 -0.849,-0.315 -0.147,-0.04 -0.376,-0.054 -0.592,-0.022 -0.128,0.019 -0.251,0.055 -0.348,0.111 -0.09,0.052 -0.158,0.124 -0.183,0.218 -0.012,0.044 -0.015,0.095 -0.006,0.152 0.025,0.172 0.564,0.929 1.188,1.758 0.631,0.837 1.344,1.742 1.712,2.208l0.131 0.165 -0.197 -0.075c-0.091,-0.035 -0.185,-0.076 -0.265,-0.121 -0.071,-0.04 -0.133,-0.083 -0.176,-0.128 -0.249,-0.258 -1.186,-1.456 -1.889,-2.455 -0.475,-0.675 -0.845,-1.266 -0.83,-1.431 0.019,-0.224 0.127,-0.389 0.28,-0.503 0.178,-0.133 0.419,-0.197 0.65,-0.205l0.043 -0.002z"/>
		</g>
		<path class="fil3" d="M38.825 17.155l3.204 0c3.008,0 5.144,-1.862 5.144,-4.48 0,-2.618 -2.136,-4.467 -5.144,-4.467l-3.204 0 0 8.947zm1.915 -1.745l0 -5.457 1.536 0c1.72,0 2.918,1.133 2.918,2.722 0,1.602 -1.198,2.735 -2.918,2.735l-1.536 0zm12.124 1.901c1.355,0 2.592,-0.586 3.465,-1.497l-1.381 -1.251c-0.521,0.599 -1.263,1.003 -2.084,1.003 -1.497,0 -2.774,-1.328 -2.774,-2.891 0,-1.55 1.277,-2.878 2.774,-2.878 0.821,0 1.563,0.403 2.071,1.003l1.394 -1.251c-0.873,-0.924 -2.11,-1.497 -3.465,-1.497 -2.578,0 -4.753,2.109 -4.753,4.623 0,2.513 2.175,4.636 4.753,4.636zm6.656 -1.888l0 -7.215 -1.915 0 0 8.947 6.368 0 0 -1.732 -4.453 0zm7.923 -1.823l3.568 0 0 -1.615 -3.568 0 0 1.615zm7.546 3.555l1.914 0 0 -2.904 2.11 0c1.94,0 3.373,-1.25 3.373,-3.022 0,-1.771 -1.433,-3.021 -3.373,-3.021l-4.024 0 0 8.947zm1.914 -4.662l0 -2.527 1.914 0c0.938,0 1.589,0.495 1.589,1.263 0,0.769 -0.651,1.264 -1.589,1.264l-1.914 0zm14.234 -1.264c0,-1.771 -1.432,-3.021 -3.373,-3.021l-4.024 0 0 8.947 1.915 0 0 -2.904 1.159 0 2.044 2.904 2.188 0 -2.148 -3.06c1.341,-0.391 2.239,-1.459 2.239,-2.866zm-5.482 -1.263l1.914 0c0.938,0 1.589,0.495 1.589,1.263 0,0.769 -0.651,1.264 -1.589,1.264l-1.914 0 0 -2.527zm11.135 7.345c2.578,0 4.753,-2.123 4.753,-4.636 0,-2.514 -2.175,-4.623 -4.753,-4.623 -2.579,0 -4.754,2.109 -4.754,4.623 0,2.513 2.175,4.636 4.754,4.636zm0 -1.745c-1.498,0 -2.774,-1.328 -2.774,-2.891 0,-1.55 1.276,-2.878 2.774,-2.878 1.51,0 2.774,1.328 2.774,2.878 0,1.563 -1.264,2.891 -2.774,2.891z"/>
		<path class="fil4" d="M50.8 26.436c0.937,0 1.447,-0.51 1.447,-1.181 0,-0.712 -0.55,-0.978 -1.343,-1.164 -0.654,-0.156 -0.996,-0.283 -0.996,-0.654 0,-0.318 0.313,-0.602 0.758,-0.602 0.406,0 0.805,0.18 1.141,0.487l0.335 -0.44c-0.382,-0.336 -0.839,-0.562 -1.452,-0.562 -0.799,0 -1.378,0.504 -1.378,1.169 0,0.718 0.538,0.961 1.349,1.152 0.665,0.151 0.995,0.296 0.995,0.672 0,0.318 -0.283,0.608 -0.833,0.608 -0.539,0 -0.955,-0.22 -1.308,-0.556l-0.354 0.434c0.423,0.405 0.973,0.637 1.639,0.637zm4.225 -0.469c-0.527,0 -0.897,-0.382 -0.967,-0.909l2.385 0c0,-1.065 -0.533,-1.748 -1.447,-1.748 -0.828,0 -1.499,0.66 -1.499,1.557 0,0.92 0.712,1.575 1.545,1.575 0.423,0 0.944,-0.18 1.21,-0.464l-0.336 -0.353c-0.191,0.197 -0.561,0.342 -0.891,0.342zm-0.012 -2.182c0.521,0 0.816,0.37 0.874,0.851l-1.823 0c0.087,-0.516 0.469,-0.851 0.949,-0.851zm3.288 0.179l0 -0.584 -0.567 0 0 2.992 0.567 0 0 -1.592c0,-0.579 0.457,-0.972 1.117,-0.972l0 -0.498c-0.521,0 -0.932,0.255 -1.117,0.654zm3.484 2.408l0.539 0 1.262 -2.992 -0.62 0 -0.914 2.326 -0.932 -2.326 -0.619 0 1.284 2.992zm3.34 -3.49c0.191,0 0.342,-0.162 0.342,-0.348 0,-0.179 -0.151,-0.341 -0.342,-0.341 -0.191,0 -0.347,0.162 -0.347,0.341 0,0.186 0.156,0.348 0.347,0.348zm-0.283 3.49l0.567 0 0 -2.992 -0.567 0 0 2.992zm3.449 0.07c0.446,0 0.834,-0.186 1.123,-0.481l-0.387 -0.353c-0.186,0.208 -0.452,0.336 -0.736,0.336 -0.544,0 -0.995,-0.486 -0.995,-1.071 0,-0.579 0.451,-1.065 0.995,-1.065 0.278,0 0.539,0.121 0.718,0.324l0.388 -0.359c-0.284,-0.284 -0.671,-0.463 -1.1,-0.463 -0.856,0 -1.58,0.712 -1.58,1.563 0,0.851 0.724,1.569 1.574,1.569zm3.78 -0.475c-0.527,0 -0.897,-0.382 -0.967,-0.909l2.385 0c0,-1.065 -0.532,-1.748 -1.447,-1.748 -0.828,0 -1.499,0.66 -1.499,1.557 0,0.92 0.712,1.575 1.545,1.575 0.423,0 0.944,-0.18 1.21,-0.464l-0.335 -0.353c-0.192,0.197 -0.562,0.342 -0.892,0.342zm-0.012 -2.182c0.521,0 0.817,0.37 0.874,0.851l-1.823 0c0.087,-0.516 0.469,-0.851 0.949,-0.851zm3.624 2.657c0.654,0 1.134,-0.359 1.134,-0.927 0,-0.596 -0.521,-0.758 -1.018,-0.903 -0.504,-0.156 -0.706,-0.225 -0.706,-0.457 0,-0.249 0.243,-0.382 0.544,-0.382 0.272,0 0.573,0.104 0.862,0.29l0.243 -0.406c-0.324,-0.214 -0.718,-0.347 -1.105,-0.347 -0.631,0 -1.089,0.359 -1.089,0.909 0,0.486 0.342,0.683 1.031,0.874 0.382,0.104 0.694,0.197 0.694,0.48 0,0.243 -0.231,0.405 -0.584,0.405 -0.33,0 -0.689,-0.133 -1.019,-0.376l-0.266 0.394c0.364,0.289 0.839,0.446 1.279,0.446zm4.717 -0.614l0 -3.432 -0.584 0 0 3.976 2.691 0 0 -0.544 -2.107 0zm4.104 0.544l0.585 0 0 -3.432 1.302 0 0 -0.544 -3.195 0 0 0.544 1.308 0 0 3.432zm3.137 -0.058l1.366 0c1.291,0 2.2,-0.828 2.2,-1.991 0,-1.163 -0.909,-1.985 -2.2,-1.985l-1.366 0 0 3.976zm0.585 -0.532l0 -2.912 0.822 0c0.914,0 1.563,0.602 1.563,1.453 0,0.857 -0.649,1.459 -1.563,1.459l-0.822 0z"/>
	</g>
</svg>
