<?xml version="1.0" encoding="UTF-8"?>
<!DOCTYPE svg PUBLIC "-//W3C//DTD SVG 1.1//EN" "http://www.w3.org/Graphics/SVG/1.1/DTD/svg11.dtd">
<svg xmlns="http://www.w3.org/2000/svg" xml:space="preserve" width="581px" height="720px" version="1.1" style="shape-rendering:geometricPrecision; text-rendering:geometricPrecision; image-rendering:optimizeQuality; fill-rule:evenodd; clip-rule:evenodd" viewBox="0 0 581.001 719.925"  xmlns:xlink="http://www.w3.org/1999/xlink"  xmlns:xodm="http://www.corel.com/coreldraw/odm/2003">
	<defs>
		<style type="text/css">
			<![CDATA[
				.fil2 {fill:#29B4C6}
				.fil0 {fill:#96A7B1}
				.fil1 {fill:#EE7877}
				.fil3 {fill:#748187;fill-rule:nonzero}
				.fil4 {fill:#EE7877;fill-rule:nonzero}
			]]>
		</style>
	</defs>
	<g id="Layer_x0020_1">
		<path class="fil0" d="M127.224 356.118l0 -200.915 -6.355 6.355 -86.034 0 255.666 -161.558 94.728 59.861 0 -38.95 39.35 0 0 63.814 121.587 76.833 -86.032 0 -6.357 -6.355 0 200.915c0,0 -5.871,4.522 -10.638,8.314 -4.766,3.791 -17.958,3.174 -17.958,3.174l0 -232.198 -134.68 -84.079 -134.68 84.079 0 232.198c0,0 -13.191,0.617 -17.959,-3.174 -4.766,-3.792 -10.638,-8.314 -10.638,-8.314z"/>
		<path class="fil1" d="M299.058 266.673c0,0 15.161,-11.487 15.161,-28.84 0,-17.352 -5.624,-17.352 -5.624,-25.419 0,-8.065 3.179,-8.065 3.179,-8.065l0 -7.58c-1.589,2.876 -15.153,-2.69 -15.153,-18.088 0,-15.397 13.445,-20.041 19.31,-20.041 5.864,0 12.464,5.87 12.464,11.979 0,6.108 1.311,12.53 1.311,12.53 0,0 11.156,-3.488 24.354,-3.488 13.2,0 57.682,5.38 57.682,44.242 0,0 -0.976,26.886 -19.063,26.886 0,0 6.844,-6.353 6.844,-21.998 0,-15.644 -18.089,-23.467 -21.266,-20.777 0,0 33.253,109.752 -5.366,164.503 0,0 6.599,-59.149 -6.599,-85.301 0,0 -22.733,84.566 -38.373,87.012 0,0 31.769,-129.052 -0.005,-150.562 0,0 -2.442,46.192 -28.856,43.007zm2.181 4.908c0,0 -18.58,5.745 -33.245,-48.765 0,0 -30.544,-8.787 -8.791,107.798l-9.777 0.733 -5.01 38.129 -5.255 -37.273 -20.774 -0.121 -8.679 40.693 -5.743 -40.572 -14.301 -1.345c0,0 6.722,-59.761 12.586,-89.58 0,0 -10.509,6.599 -21.265,37.884 0,0 -4.893,-82.854 73.814,-85.3 0,0 -0.735,-4.406 -0.123,-8.071 0,0 -8.431,-0.975 -8.431,-9.042 0,-8.067 10.755,-10.632 14.787,-3.91 0,0 14.418,-2.689 18.82,5.378 4.401,8.065 0.373,22.857 -6.352,27.741 0,0 2.199,6.722 5.864,10.632 0,0 -1.407,34.062 21.875,54.991z"/>
		<path class="fil0" d="M293.797 284.436c0,0 2.443,-8.679 9.656,-8.679 7.213,0 7.213,8.188 7.213,9.654 0,1.468 1.843,89.829 1.843,89.829 0,0 3.367,-77.912 3.123,-87.139 -0.244,-9.226 -3.548,-15.094 -11.551,-15.094 -8.004,0 -10.284,11.429 -10.284,11.429z"/>
		<path class="fil2" d="M541.134 291.951l-1.2 2.584 0.745 0.027c3.987,0.143 8.135,1.243 11.212,3.548 2.635,1.974 4.496,4.817 4.836,8.666 0.249,2.854 -6.124,13.044 -14.324,24.695 -12.122,17.229 -28.304,37.916 -32.597,42.364 -0.751,0.779 -1.813,1.524 -3.029,2.201 -1.392,0.78 -3.013,1.494 -4.584,2.094l-3.399 1.298 2.258 -2.854c6.355,-8.031 18.665,-23.648 29.536,-38.094 10.771,-14.309 20.071,-27.36 20.513,-30.336 0.145,-0.978 0.096,-1.852 -0.107,-2.619 -0.431,-1.617 -1.601,-2.857 -3.171,-3.767 -1.668,-0.97 -3.797,-1.583 -6.009,-1.912 -3.721,-0.549 -7.664,-0.302 -10.202,0.378 -4.409,1.365 -9.649,3.189 -14.646,5.431 -4.97,2.23 -9.704,4.88 -13.123,7.904 -4.566,4.033 -11.855,12.495 -19.875,21.809 -14.407,16.72 -31.184,36.196 -39.567,38.453 -3.499,0.943 -7.963,1.316 -11.895,1.637l-2.703 0.232c-3.744,0.346 -7.52,0.737 -11.374,1.217 -3.789,0.469 -7.556,1.019 -11.289,1.702 -10.099,1.835 -19.849,4.54 -29.112,8.358 -9.246,3.813 -18.022,8.748 -26.187,15.052 -17.464,13.475 -32.485,32.47 -41.128,53.611 -7.71,18.861 -10.349,39.442 -5.126,59.342l0.096 0.37 102.024 0 0.04 -0.443c0.443,-4.67 2.375,-9.303 5.185,-13.335 2.971,-4.275 6.951,-7.911 11.185,-10.23 16.298,-8.945 32.614,-18.794 48.608,-28.447l2.017 -1.218c5.402,-3.262 10.717,-6.489 15.77,-9.606 5.181,-3.195 10.398,-6.465 15.63,-9.819l2.62 -1.667c5.388,-3.411 11.903,-7.542 16.15,-11.402 4.616,-4.194 16.951,-27.679 28.725,-52.481 12.73,-26.815 24.77,-55.104 25.694,-62.206 0.674,-5.174 1.67,-23.393 1.67,-44.062 0,-16.623 -0.649,-34.808 -2.629,-48.982 -1.928,-13.775 -5.018,-23.689 -9.819,-24.324l-0.471 -0.026c-9.041,0 -14.52,9.313 -17.864,20.33 -3.428,11.287 -4.609,24.403 -5.115,31.457 -0.495,6.996 -1.087,14.149 -1.749,21.395 -0.655,7.197 -1.374,14.324 -2.134,21.362l-0.086 0.313zm-500.067 2.584l-1.266 -2.729 -0.015 -0.168c-0.762,-7.038 -1.479,-14.165 -2.136,-21.362 -0.66,-7.246 -1.252,-14.401 -1.75,-21.395 -0.504,-7.054 -1.687,-20.17 -5.115,-31.457 -3.345,-11.017 -8.823,-20.33 -17.867,-20.33l-0.471 0.029c-4.802,0.637 -7.889,10.546 -9.818,24.325 -1.981,14.179 -2.629,32.363 -2.629,48.989 0,20.663 0.996,38.877 1.672,44.051 0.925,7.105 12.971,35.401 25.704,62.225 11.77,24.795 24.1,48.268 28.717,52.462 4.239,3.854 10.749,7.977 16.132,11.393l2.632 1.673c5.236,3.357 10.452,6.627 15.634,9.822 5.05,3.117 10.374,6.346 15.773,9.606l2.157 1.304c15.946,9.627 32.21,19.444 48.464,28.361 4.233,2.319 8.21,5.955 11.188,10.23 2.806,4.035 4.74,8.665 5.176,13.329l0.042 0.449 102.028 0 0.1 -0.37c5.221,-19.9 2.581,-40.481 -5.129,-59.342 -8.644,-21.144 -23.664,-40.138 -41.127,-53.611 -8.165,-6.304 -16.942,-11.239 -26.19,-15.052 -9.261,-3.818 -19.013,-6.523 -29.107,-8.358 -3.736,-0.683 -7.504,-1.233 -11.292,-1.702 -3.854,-0.48 -7.633,-0.871 -11.377,-1.221l-2.707 -0.228c-3.928,-0.321 -8.39,-0.694 -11.887,-1.637 -8.381,-2.257 -25.155,-21.728 -39.56,-38.448 -8.025,-9.314 -15.317,-17.778 -19.883,-21.814 -3.419,-3.024 -8.156,-5.674 -13.124,-7.904 -4.997,-2.242 -10.241,-4.066 -14.648,-5.434 -2.544,-0.677 -6.489,-0.924 -10.211,-0.373 -2.209,0.327 -4.335,0.94 -6.003,1.91 -1.567,0.91 -2.734,2.147 -3.166,3.764 -0.204,0.767 -0.251,1.644 -0.107,2.622 0.442,2.976 9.743,16.029 20.511,30.336 10.876,14.449 23.184,30.063 29.536,38.094l2.254 2.854 -3.395 -1.298c-1.572,-0.6 -3.189,-1.314 -4.579,-2.091 -1.213,-0.68 -2.282,-1.425 -3.031,-2.204 -4.293,-4.445 -20.467,-25.13 -32.595,-42.359 -8.201,-11.651 -14.576,-21.846 -14.329,-24.7 0.339,-3.851 2.201,-6.697 4.839,-8.668 3.076,-2.303 7.224,-3.403 11.214,-3.546l0.741 -0.027z"/>
		<path class="fil3" d="M23.848 640.959l27.242 0c25.582,0 43.744,-15.836 43.744,-38.095 0,-22.26 -18.162,-37.984 -43.744,-37.984l-27.242 0 0 76.079zm16.28 -14.84l0 -46.4 13.067 0c14.617,0 24.805,9.633 24.805,23.145 0,13.621 -10.188,23.255 -24.805,23.255l-13.067 0zm103.099 16.168c11.517,0 22.038,-4.984 29.457,-12.735l-11.738 -10.631c-4.429,5.094 -10.743,8.526 -17.719,8.526 -12.735,0 -23.588,-11.295 -23.588,-24.583 0,-13.178 10.853,-24.474 23.588,-24.474 6.976,0 13.29,3.432 17.607,8.526l11.85 -10.63c-7.419,-7.862 -17.94,-12.735 -29.457,-12.735 -21.927,0 -40.42,17.94 -40.42,39.313 0,21.373 18.493,39.423 40.42,39.423zm56.589 -16.057l0 -61.35 -16.279 0 0 76.079 54.153 0 0 -14.729 -37.874 0zm67.374 -15.504l30.344 0 0 -13.731 -30.344 0 0 13.731zm64.163 30.233l16.281 0 0 -24.695 17.939 0c16.501,0 28.681,-10.631 28.681,-25.692 0,-15.061 -12.18,-25.692 -28.681,-25.692l-34.22 0 0 76.079zm16.281 -39.647l0 -21.483 16.278 0c7.973,0 13.511,4.209 13.511,10.743 0,6.533 -5.538,10.74 -13.511,10.74l-16.278 0zm121.038 -10.74c0,-15.061 -12.181,-25.692 -28.681,-25.692l-34.22 0 0 76.079 16.28 0 0 -24.695 9.855 0 17.387 24.695 18.604 0 -18.272 -26.025c11.407,-3.322 19.047,-12.402 19.047,-24.362zm-46.621 -10.743l16.279 0c7.973,0 13.509,4.209 13.509,10.743 0,6.533 -5.536,10.74 -13.509,10.74l-16.279 0 0 -21.483zm94.684 62.458c21.926,0 40.42,-18.05 40.42,-39.423 0,-21.373 -18.494,-39.313 -40.42,-39.313 -21.928,0 -40.422,17.94 -40.422,39.313 0,21.373 18.494,39.423 40.422,39.423zm0 -14.84c-12.735,0 -23.589,-11.295 -23.589,-24.583 0,-13.178 10.854,-24.474 23.589,-24.474 12.845,0 23.587,11.296 23.587,24.474 0,13.288 -10.742,24.583 -23.587,24.583z"/>
		<path class="fil4" d="M125.668 719.875c7.973,0 12.305,-4.332 12.305,-10.041 0,-6.053 -4.677,-8.317 -11.419,-9.892 -5.562,-1.33 -8.464,-2.413 -8.464,-5.562 0,-2.706 2.656,-5.119 6.446,-5.119 3.446,0 6.842,1.526 9.697,4.134l2.854 -3.739c-3.248,-2.856 -7.136,-4.775 -12.354,-4.775 -6.792,0 -11.714,4.282 -11.714,9.942 0,6.103 4.578,8.17 11.468,9.794 5.66,1.28 8.466,2.511 8.466,5.709 0,2.708 -2.413,5.169 -7.088,5.169 -4.577,0 -8.12,-1.87 -11.123,-4.726l-3.002 3.692c3.592,3.445 8.268,5.414 13.928,5.414zm35.93 -3.987c-4.479,0 -7.629,-3.248 -8.22,-7.727l20.278 0c0,-9.056 -4.527,-14.864 -12.305,-14.864 -7.037,0 -12.747,5.61 -12.747,13.24 0,7.826 6.054,13.388 13.142,13.388 3.592,0 8.021,-1.527 10.286,-3.939l-2.855 -3.001c-1.624,1.673 -4.774,2.903 -7.579,2.903zm-0.099 -18.556c4.429,0 6.94,3.151 7.433,7.235l-15.504 0c0.738,-4.379 3.987,-7.235 8.071,-7.235zm27.956 1.527l0 -4.971 -4.823 0 0 25.446 4.823 0 0 -13.535c0,-4.923 3.888,-8.27 9.499,-8.27l0 -4.232c-4.43,0 -7.924,2.166 -9.499,5.562zm29.63 20.475l4.577 0 10.729 -25.446 -5.265 0 -7.777 19.785 -7.925 -19.785 -5.265 0 10.926 25.446zm28.399 -29.678c1.623,0 2.903,-1.38 2.903,-2.954 0,-1.525 -1.28,-2.904 -2.903,-2.904 -1.624,0 -2.952,1.379 -2.952,2.904 0,1.574 1.328,2.954 2.952,2.954zm-2.412 29.678l4.823 0 0 -25.446 -4.823 0 0 25.446zm29.334 0.591c3.791,0 7.088,-1.576 9.549,-4.085l-3.297 -3.003c-1.576,1.771 -3.841,2.854 -6.252,2.854 -4.627,0 -8.466,-4.134 -8.466,-9.106 0,-4.921 3.839,-9.056 8.466,-9.056 2.363,0 4.577,1.034 6.103,2.757l3.298 -3.052c-2.411,-2.411 -5.71,-3.937 -9.351,-3.937 -7.285,0 -13.437,6.053 -13.437,13.288 0,7.237 6.152,13.34 13.387,13.34zm32.14 -4.037c-4.478,0 -7.629,-3.248 -8.22,-7.727l20.279 0c0,-9.056 -4.529,-14.864 -12.305,-14.864 -7.038,0 -12.749,5.61 -12.749,13.24 0,7.826 6.055,13.388 13.142,13.388 3.594,0 8.023,-1.527 10.287,-3.939l-2.854 -3.001c-1.625,1.673 -4.775,2.903 -7.58,2.903zm-0.098 -18.556c4.429,0 6.938,3.151 7.432,7.235l-15.505 0c0.738,-4.379 3.987,-7.235 8.073,-7.235zm30.809 22.593c5.562,0 9.648,-3.053 9.648,-7.876 0,-5.069 -4.429,-6.447 -8.663,-7.678 -4.281,-1.329 -6.004,-1.92 -6.004,-3.888 0,-2.116 2.067,-3.249 4.626,-3.249 2.314,0 4.874,0.886 7.335,2.461l2.066 -3.444c-2.756,-1.821 -6.102,-2.954 -9.401,-2.954 -5.364,0 -9.253,3.052 -9.253,7.728 0,4.134 2.904,5.807 8.761,7.431 3.248,0.886 5.907,1.673 5.907,4.086 0,2.066 -1.969,3.444 -4.972,3.444 -2.806,0 -5.856,-1.132 -8.661,-3.199l-2.265 3.347c3.101,2.462 7.137,3.791 10.876,3.791zm40.114 -5.217l0 -29.188 -4.971 0 0 33.814 22.888 0 0 -4.626 -17.917 0zm34.896 4.626l4.972 0 0 -29.187 11.074 0 0 -4.627 -27.17 0 0 4.627 11.124 0 0 29.187zm26.677 -0.492l11.615 0c10.976,0 18.704,-7.04 18.704,-16.931 0,-9.894 -7.728,-16.883 -18.704,-16.883l-11.615 0 0 33.814zm4.97 -4.529l0 -24.757 6.99 0c7.776,0 13.288,5.119 13.288,12.355 0,7.283 -5.512,12.402 -13.288,12.402l-6.99 0z"/>
	</g>
</svg>
